<svg xmlns="http://www.w3.org/2000/svg" width="24.273" height="26.97" viewBox="0 0 24.273 26.97">
  <path id="Icon_material-date-range" data-name="Icon material-date-range" d="M12.591,15.137h-2.7v2.7h2.7Zm5.394,0h-2.7v2.7h2.7Zm5.394,0h-2.7v2.7h2.7Zm2.7-9.44H24.728V3h-2.7V5.7H11.243V3h-2.7V5.7H7.2a2.685,2.685,0,0,0-2.684,2.7L4.5,27.273a2.7,2.7,0,0,0,2.7,2.7H26.076a2.7,2.7,0,0,0,2.7-2.7V8.394A2.7,2.7,0,0,0,26.076,5.7Zm0,21.576H7.2V12.44H26.076Z" transform="translate(-4.5 -3)" fill="#a4a7a8"/>
</svg>
